<mxfile host="app.diagrams.net" agent="Mozilla/5.0 (Windows NT 10.0; Win64; x64) AppleWebKit/537.36 (KHTML, like Gecko) Chrome/134.0.0.0 Safari/537.36 Edg/134.0.0.0" version="26.1.1">
  <diagram name="Pagina-1" id="sRcoqV66j2pTTsuWdJ66">
    <mxGraphModel dx="1002" dy="565" grid="0" gridSize="10" guides="1" tooltips="1" connect="1" arrows="1" fold="1" page="1" pageScale="1" pageWidth="827" pageHeight="1169" math="0" shadow="0">
      <root>
        <mxCell id="0" />
        <mxCell id="1" parent="0" />
        <mxCell id="4KfFidEqJX6KOeFN17Nu-1" value="IDLE, LOAD, SEND_REQ, DONE, INCR_CNT" style="text;html=1;align=center;verticalAlign=middle;resizable=0;points=[];autosize=1;strokeColor=none;fillColor=none;" vertex="1" parent="1">
          <mxGeometry x="92" y="19" width="265" height="26" as="geometry" />
        </mxCell>
        <mxCell id="4KfFidEqJX6KOeFN17Nu-2" value="idle" style="ellipse;whiteSpace=wrap;html=1;aspect=fixed;" vertex="1" parent="1">
          <mxGeometry x="84" y="188" width="80" height="80" as="geometry" />
        </mxCell>
        <mxCell id="4KfFidEqJX6KOeFN17Nu-3" value="" style="curved=1;endArrow=classic;html=1;rounded=0;exitX=0.055;exitY=0.375;exitDx=0;exitDy=0;exitPerimeter=0;" edge="1" parent="1" source="4KfFidEqJX6KOeFN17Nu-2">
          <mxGeometry width="50" height="50" relative="1" as="geometry">
            <mxPoint x="47" y="221" as="sourcePoint" />
            <mxPoint x="120" y="187" as="targetPoint" />
            <Array as="points">
              <mxPoint x="47" y="171" />
            </Array>
          </mxGeometry>
        </mxCell>
        <mxCell id="4KfFidEqJX6KOeFN17Nu-7" value="start = 0" style="text;html=1;align=center;verticalAlign=middle;resizable=0;points=[];autosize=1;strokeColor=none;fillColor=none;" vertex="1" parent="1">
          <mxGeometry x="15" y="176" width="62" height="26" as="geometry" />
        </mxCell>
        <mxCell id="4KfFidEqJX6KOeFN17Nu-8" value="LOAD&lt;div&gt;Read = 1&lt;/div&gt;" style="ellipse;whiteSpace=wrap;html=1;aspect=fixed;" vertex="1" parent="1">
          <mxGeometry x="254" y="188" width="80" height="80" as="geometry" />
        </mxCell>
        <mxCell id="4KfFidEqJX6KOeFN17Nu-9" value="SEND REQ&lt;div&gt;req = 1&lt;/div&gt;" style="ellipse;whiteSpace=wrap;html=1;aspect=fixed;" vertex="1" parent="1">
          <mxGeometry x="429" y="188" width="80" height="80" as="geometry" />
        </mxCell>
        <mxCell id="4KfFidEqJX6KOeFN17Nu-10" value="DONE&lt;div&gt;req = 0&lt;/div&gt;&lt;div&gt;Read = 0&lt;/div&gt;" style="ellipse;whiteSpace=wrap;html=1;aspect=fixed;" vertex="1" parent="1">
          <mxGeometry x="639" y="188" width="80" height="80" as="geometry" />
        </mxCell>
        <mxCell id="4KfFidEqJX6KOeFN17Nu-11" value="INCR_CNT&lt;div&gt;en_count=1&lt;/div&gt;" style="ellipse;whiteSpace=wrap;html=1;aspect=fixed;" vertex="1" parent="1">
          <mxGeometry x="334" y="361" width="80" height="80" as="geometry" />
        </mxCell>
        <mxCell id="4KfFidEqJX6KOeFN17Nu-12" value="" style="endArrow=classic;html=1;rounded=0;entryX=0;entryY=0.5;entryDx=0;entryDy=0;exitX=1;exitY=0.5;exitDx=0;exitDy=0;" edge="1" parent="1" source="4KfFidEqJX6KOeFN17Nu-2" target="4KfFidEqJX6KOeFN17Nu-8">
          <mxGeometry width="50" height="50" relative="1" as="geometry">
            <mxPoint x="164" y="271" as="sourcePoint" />
            <mxPoint x="214" y="221" as="targetPoint" />
          </mxGeometry>
        </mxCell>
        <mxCell id="4KfFidEqJX6KOeFN17Nu-13" value="start = 1" style="edgeLabel;html=1;align=center;verticalAlign=middle;resizable=0;points=[];" vertex="1" connectable="0" parent="4KfFidEqJX6KOeFN17Nu-12">
          <mxGeometry x="0.1956" relative="1" as="geometry">
            <mxPoint as="offset" />
          </mxGeometry>
        </mxCell>
        <mxCell id="4KfFidEqJX6KOeFN17Nu-14" value="" style="endArrow=classic;html=1;rounded=0;entryX=0;entryY=0.5;entryDx=0;entryDy=0;exitX=1;exitY=0.5;exitDx=0;exitDy=0;" edge="1" parent="1" source="4KfFidEqJX6KOeFN17Nu-8" target="4KfFidEqJX6KOeFN17Nu-9">
          <mxGeometry width="50" height="50" relative="1" as="geometry">
            <mxPoint x="375" y="269" as="sourcePoint" />
            <mxPoint x="425" y="219" as="targetPoint" />
          </mxGeometry>
        </mxCell>
        <mxCell id="4KfFidEqJX6KOeFN17Nu-17" value="ack = 0" style="text;html=1;align=center;verticalAlign=middle;resizable=0;points=[];autosize=1;strokeColor=none;fillColor=none;" vertex="1" parent="1">
          <mxGeometry x="393" y="150" width="57" height="26" as="geometry" />
        </mxCell>
        <mxCell id="4KfFidEqJX6KOeFN17Nu-18" value="" style="endArrow=classic;html=1;rounded=0;entryX=0;entryY=0.5;entryDx=0;entryDy=0;exitX=1;exitY=0.5;exitDx=0;exitDy=0;" edge="1" parent="1" source="4KfFidEqJX6KOeFN17Nu-9" target="4KfFidEqJX6KOeFN17Nu-10">
          <mxGeometry width="50" height="50" relative="1" as="geometry">
            <mxPoint x="547" y="264" as="sourcePoint" />
            <mxPoint x="597" y="214" as="targetPoint" />
          </mxGeometry>
        </mxCell>
        <mxCell id="4KfFidEqJX6KOeFN17Nu-19" value="ack = 1" style="text;html=1;align=center;verticalAlign=middle;resizable=0;points=[];autosize=1;strokeColor=none;fillColor=none;" vertex="1" parent="1">
          <mxGeometry x="556" y="207" width="57" height="26" as="geometry" />
        </mxCell>
        <mxCell id="4KfFidEqJX6KOeFN17Nu-22" value="" style="curved=1;endArrow=classic;html=1;rounded=0;exitX=0.055;exitY=0.375;exitDx=0;exitDy=0;exitPerimeter=0;" edge="1" parent="1">
          <mxGeometry width="50" height="50" relative="1" as="geometry">
            <mxPoint x="433" y="217" as="sourcePoint" />
            <mxPoint x="465" y="186" as="targetPoint" />
            <Array as="points">
              <mxPoint x="392" y="170" />
            </Array>
          </mxGeometry>
        </mxCell>
        <mxCell id="4KfFidEqJX6KOeFN17Nu-27" value="" style="curved=1;endArrow=classic;html=1;rounded=0;exitX=0.055;exitY=0.375;exitDx=0;exitDy=0;exitPerimeter=0;" edge="1" parent="1">
          <mxGeometry width="50" height="50" relative="1" as="geometry">
            <mxPoint x="647" y="207" as="sourcePoint" />
            <mxPoint x="685" y="187" as="targetPoint" />
            <Array as="points">
              <mxPoint x="606" y="160" />
            </Array>
          </mxGeometry>
        </mxCell>
        <mxCell id="4KfFidEqJX6KOeFN17Nu-28" value="ack = 1" style="text;html=1;align=center;verticalAlign=middle;resizable=0;points=[];autosize=1;strokeColor=none;fillColor=none;" vertex="1" parent="1">
          <mxGeometry x="611" y="155" width="57" height="26" as="geometry" />
        </mxCell>
        <mxCell id="4KfFidEqJX6KOeFN17Nu-29" value="" style="endArrow=classic;html=1;rounded=0;entryX=0.96;entryY=0.342;entryDx=0;entryDy=0;entryPerimeter=0;" edge="1" parent="1" source="4KfFidEqJX6KOeFN17Nu-10" target="4KfFidEqJX6KOeFN17Nu-11">
          <mxGeometry width="50" height="50" relative="1" as="geometry">
            <mxPoint x="574" y="335" as="sourcePoint" />
            <mxPoint x="524" y="385" as="targetPoint" />
          </mxGeometry>
        </mxCell>
        <mxCell id="4KfFidEqJX6KOeFN17Nu-31" value="ack = 0" style="text;html=1;align=center;verticalAlign=middle;resizable=0;points=[];autosize=1;strokeColor=none;fillColor=none;" vertex="1" parent="1">
          <mxGeometry x="511" y="311" width="57" height="26" as="geometry" />
        </mxCell>
        <mxCell id="4KfFidEqJX6KOeFN17Nu-32" value="" style="endArrow=classic;html=1;rounded=0;entryX=0.5;entryY=1;entryDx=0;entryDy=0;exitX=0;exitY=0;exitDx=0;exitDy=0;" edge="1" parent="1" source="4KfFidEqJX6KOeFN17Nu-11" target="4KfFidEqJX6KOeFN17Nu-8">
          <mxGeometry width="50" height="50" relative="1" as="geometry">
            <mxPoint x="265" y="361" as="sourcePoint" />
            <mxPoint x="315" y="311" as="targetPoint" />
          </mxGeometry>
        </mxCell>
        <mxCell id="4KfFidEqJX6KOeFN17Nu-33" value="" style="endArrow=classic;html=1;rounded=0;entryX=0.725;entryY=0.945;entryDx=0;entryDy=0;exitX=0;exitY=0.5;exitDx=0;exitDy=0;entryPerimeter=0;" edge="1" parent="1" source="4KfFidEqJX6KOeFN17Nu-11" target="4KfFidEqJX6KOeFN17Nu-2">
          <mxGeometry width="50" height="50" relative="1" as="geometry">
            <mxPoint x="294" y="397" as="sourcePoint" />
            <mxPoint x="242" y="292" as="targetPoint" />
          </mxGeometry>
        </mxCell>
        <mxCell id="4KfFidEqJX6KOeFN17Nu-34" value="count = &#39;111&#39;" style="text;html=1;align=center;verticalAlign=middle;resizable=0;points=[];autosize=1;strokeColor=none;fillColor=none;" vertex="1" parent="1">
          <mxGeometry x="183" y="335" width="84" height="26" as="geometry" />
        </mxCell>
        <mxCell id="4KfFidEqJX6KOeFN17Nu-35" value="count !=&#39;111&#39;" style="text;html=1;align=center;verticalAlign=middle;resizable=0;points=[];autosize=1;strokeColor=none;fillColor=none;" vertex="1" parent="1">
          <mxGeometry x="309" y="289" width="84" height="26" as="geometry" />
        </mxCell>
      </root>
    </mxGraphModel>
  </diagram>
</mxfile>
